<mxfile host="app.diagrams.net" modified="2021-03-18T10:32:10.148Z" agent="5.0 (Windows NT 10.0; Win64; x64) AppleWebKit/537.36 (KHTML, like Gecko) Chrome/89.0.4389.90 Safari/537.36" etag="H1Ebkc0BUCx7KgpFMTs5" version="14.4.9" type="github">
  <diagram id="JMVW4VKieBPlmQIHoedn" name="Page-1">
    <mxGraphModel dx="1422" dy="762" grid="1" gridSize="10" guides="1" tooltips="1" connect="1" arrows="1" fold="1" page="1" pageScale="1" pageWidth="827" pageHeight="1169" math="0" shadow="0">
      <root>
        <mxCell id="0" />
        <mxCell id="1" parent="0" />
        <mxCell id="Rmg1uCzJ_VwoZsZOOwg5-1" value="m5Stack&lt;br&gt;" style="rounded=0;whiteSpace=wrap;html=1;" parent="1" vertex="1">
          <mxGeometry x="330" y="320" width="160" height="100" as="geometry" />
        </mxCell>
        <mxCell id="2HFA_lHzWDiCbQfCLhAR-2" value="Capteur Ouverture fenêtre&amp;nbsp;" style="rounded=0;whiteSpace=wrap;html=1;" parent="1" vertex="1">
          <mxGeometry x="30" y="535" width="160" height="100" as="geometry" />
        </mxCell>
        <mxCell id="2HFA_lHzWDiCbQfCLhAR-9" style="edgeStyle=orthogonalEdgeStyle;rounded=0;orthogonalLoop=1;jettySize=auto;html=1;exitX=0.75;exitY=0;exitDx=0;exitDy=0;entryX=0.125;entryY=1;entryDx=0;entryDy=0;entryPerimeter=0;" parent="1" source="2HFA_lHzWDiCbQfCLhAR-10" target="Rmg1uCzJ_VwoZsZOOwg5-1" edge="1">
          <mxGeometry relative="1" as="geometry" />
        </mxCell>
        <mxCell id="2HFA_lHzWDiCbQfCLhAR-3" value="Capteur Gaz&amp;nbsp;" style="rounded=0;whiteSpace=wrap;html=1;" parent="1" vertex="1">
          <mxGeometry x="234" y="535" width="160" height="100" as="geometry" />
        </mxCell>
        <mxCell id="2HFA_lHzWDiCbQfCLhAR-12" style="edgeStyle=orthogonalEdgeStyle;rounded=0;orthogonalLoop=1;jettySize=auto;html=1;exitX=0.25;exitY=0;exitDx=0;exitDy=0;entryX=0.75;entryY=1;entryDx=0;entryDy=0;" parent="1" source="2HFA_lHzWDiCbQfCLhAR-4" target="Rmg1uCzJ_VwoZsZOOwg5-1" edge="1">
          <mxGeometry relative="1" as="geometry" />
        </mxCell>
        <mxCell id="2HFA_lHzWDiCbQfCLhAR-4" value="Capteur PIR&amp;nbsp;" style="rounded=0;whiteSpace=wrap;html=1;" parent="1" vertex="1">
          <mxGeometry x="414" y="535" width="160" height="100" as="geometry" />
        </mxCell>
        <mxCell id="2HFA_lHzWDiCbQfCLhAR-5" value="Haut parleur&amp;nbsp;&amp;nbsp;" style="rounded=0;whiteSpace=wrap;html=1;" parent="1" vertex="1">
          <mxGeometry x="760" y="350" width="160" height="100" as="geometry" />
        </mxCell>
        <mxCell id="2HFA_lHzWDiCbQfCLhAR-6" value="" style="endArrow=classic;html=1;" parent="1" edge="1">
          <mxGeometry width="50" height="50" relative="1" as="geometry">
            <mxPoint x="140" y="530" as="sourcePoint" />
            <mxPoint x="330" y="400" as="targetPoint" />
            <Array as="points">
              <mxPoint x="140" y="400" />
            </Array>
          </mxGeometry>
        </mxCell>
        <mxCell id="2HFA_lHzWDiCbQfCLhAR-7" value="Ouvert/fermé" style="text;html=1;align=center;verticalAlign=middle;resizable=0;points=[];autosize=1;" parent="1" vertex="1">
          <mxGeometry x="50" y="390" width="90" height="20" as="geometry" />
        </mxCell>
        <mxCell id="2HFA_lHzWDiCbQfCLhAR-8" value="1/0" style="text;html=1;align=center;verticalAlign=middle;resizable=0;points=[];autosize=1;" parent="1" vertex="1">
          <mxGeometry x="80" y="410" width="30" height="20" as="geometry" />
        </mxCell>
        <mxCell id="2HFA_lHzWDiCbQfCLhAR-10" value="Message d&#39;alerte taux trop élevé" style="text;html=1;align=center;verticalAlign=middle;resizable=0;points=[];autosize=1;" parent="1" vertex="1">
          <mxGeometry x="204" y="480" width="190" height="20" as="geometry" />
        </mxCell>
        <mxCell id="2HFA_lHzWDiCbQfCLhAR-11" style="edgeStyle=orthogonalEdgeStyle;rounded=0;orthogonalLoop=1;jettySize=auto;html=1;exitX=0.75;exitY=0;exitDx=0;exitDy=0;entryX=0.125;entryY=1;entryDx=0;entryDy=0;entryPerimeter=0;" parent="1" source="2HFA_lHzWDiCbQfCLhAR-3" target="2HFA_lHzWDiCbQfCLhAR-10" edge="1">
          <mxGeometry relative="1" as="geometry">
            <mxPoint x="354" y="535" as="sourcePoint" />
            <mxPoint x="354" y="410" as="targetPoint" />
          </mxGeometry>
        </mxCell>
        <mxCell id="2HFA_lHzWDiCbQfCLhAR-13" value="Msg personne détecté" style="text;html=1;align=center;verticalAlign=middle;resizable=0;points=[];autosize=1;" parent="1" vertex="1">
          <mxGeometry x="415" y="460" width="130" height="20" as="geometry" />
        </mxCell>
        <mxCell id="Rmg1uCzJ_VwoZsZOOwg5-4" value="Enregistrement Capteur avec Web Service" style="text;html=1;strokeColor=none;fillColor=none;align=center;verticalAlign=middle;whiteSpace=wrap;rounded=0;" parent="1" vertex="1">
          <mxGeometry x="174" y="350" width="156" height="20" as="geometry" />
        </mxCell>
        <mxCell id="Rmg1uCzJ_VwoZsZOOwg5-5" value="Route PIR entrée" style="rounded=1;whiteSpace=wrap;html=1;" parent="1" vertex="1">
          <mxGeometry x="50" y="140" width="120" height="60" as="geometry" />
        </mxCell>
        <mxCell id="Rmg1uCzJ_VwoZsZOOwg5-6" value="Route PIR Sortie" style="rounded=1;whiteSpace=wrap;html=1;" parent="1" vertex="1">
          <mxGeometry x="210" y="140" width="120" height="60" as="geometry" />
        </mxCell>
        <mxCell id="Rmg1uCzJ_VwoZsZOOwg5-7" value="Route Capteur Fenetre&amp;nbsp;" style="rounded=1;whiteSpace=wrap;html=1;" parent="1" vertex="1">
          <mxGeometry x="370" y="140" width="120" height="60" as="geometry" />
        </mxCell>
        <mxCell id="Rmg1uCzJ_VwoZsZOOwg5-8" value="onem2m" style="rounded=1;whiteSpace=wrap;html=1;" parent="1" vertex="1">
          <mxGeometry x="260" y="10" width="250" height="60" as="geometry" />
        </mxCell>
        <mxCell id="Rmg1uCzJ_VwoZsZOOwg5-9" value="Route Capteur Gaz" style="rounded=1;whiteSpace=wrap;html=1;" parent="1" vertex="1">
          <mxGeometry x="680" y="140" width="120" height="60" as="geometry" />
        </mxCell>
        <mxCell id="Rmg1uCzJ_VwoZsZOOwg5-10" value="Route Capteur Temp" style="rounded=1;whiteSpace=wrap;html=1;" parent="1" vertex="1">
          <mxGeometry x="530" y="140" width="120" height="60" as="geometry" />
        </mxCell>
        <mxCell id="Rmg1uCzJ_VwoZsZOOwg5-11" value="" style="endArrow=classic;html=1;entryX=0.5;entryY=1;entryDx=0;entryDy=0;" parent="1" source="Rmg1uCzJ_VwoZsZOOwg5-1" target="Rmg1uCzJ_VwoZsZOOwg5-5" edge="1">
          <mxGeometry width="50" height="50" relative="1" as="geometry">
            <mxPoint x="220" y="290" as="sourcePoint" />
            <mxPoint x="270" y="240" as="targetPoint" />
          </mxGeometry>
        </mxCell>
        <mxCell id="Rmg1uCzJ_VwoZsZOOwg5-12" value="Route/PIREntree" style="text;html=1;strokeColor=none;fillColor=none;align=center;verticalAlign=middle;whiteSpace=wrap;rounded=0;" parent="1" vertex="1">
          <mxGeometry x="140" y="220" width="40" height="20" as="geometry" />
        </mxCell>
        <mxCell id="Rmg1uCzJ_VwoZsZOOwg5-15" value="Route=Batiment:id/Salle:id/" style="text;html=1;strokeColor=none;fillColor=none;align=center;verticalAlign=middle;whiteSpace=wrap;rounded=0;" parent="1" vertex="1">
          <mxGeometry x="60" y="10" width="40" height="20" as="geometry" />
        </mxCell>
        <mxCell id="Rmg1uCzJ_VwoZsZOOwg5-16" value="" style="endArrow=classic;html=1;entryX=0.567;entryY=1.017;entryDx=0;entryDy=0;entryPerimeter=0;exitX=0.25;exitY=0;exitDx=0;exitDy=0;" parent="1" source="Rmg1uCzJ_VwoZsZOOwg5-1" target="Rmg1uCzJ_VwoZsZOOwg5-6" edge="1">
          <mxGeometry width="50" height="50" relative="1" as="geometry">
            <mxPoint x="390" y="380" as="sourcePoint" />
            <mxPoint x="440" y="330" as="targetPoint" />
          </mxGeometry>
        </mxCell>
        <mxCell id="Rmg1uCzJ_VwoZsZOOwg5-17" value="" style="endArrow=classic;html=1;entryX=0.5;entryY=1;entryDx=0;entryDy=0;exitX=0.356;exitY=-0.01;exitDx=0;exitDy=0;exitPerimeter=0;" parent="1" source="Rmg1uCzJ_VwoZsZOOwg5-1" target="Rmg1uCzJ_VwoZsZOOwg5-7" edge="1">
          <mxGeometry width="50" height="50" relative="1" as="geometry">
            <mxPoint x="390" y="250" as="sourcePoint" />
            <mxPoint x="440" y="200" as="targetPoint" />
          </mxGeometry>
        </mxCell>
        <mxCell id="Rmg1uCzJ_VwoZsZOOwg5-18" value="" style="endArrow=classic;html=1;entryX=0.25;entryY=1;entryDx=0;entryDy=0;exitX=0.5;exitY=0;exitDx=0;exitDy=0;" parent="1" source="Rmg1uCzJ_VwoZsZOOwg5-1" target="Rmg1uCzJ_VwoZsZOOwg5-10" edge="1">
          <mxGeometry width="50" height="50" relative="1" as="geometry">
            <mxPoint x="500" y="280" as="sourcePoint" />
            <mxPoint x="570" y="240" as="targetPoint" />
          </mxGeometry>
        </mxCell>
        <mxCell id="Rmg1uCzJ_VwoZsZOOwg5-19" value="" style="endArrow=classic;html=1;entryX=0.1;entryY=1.017;entryDx=0;entryDy=0;entryPerimeter=0;exitX=0.75;exitY=0;exitDx=0;exitDy=0;" parent="1" source="Rmg1uCzJ_VwoZsZOOwg5-1" target="Rmg1uCzJ_VwoZsZOOwg5-9" edge="1">
          <mxGeometry width="50" height="50" relative="1" as="geometry">
            <mxPoint x="600" y="300" as="sourcePoint" />
            <mxPoint x="650" y="250" as="targetPoint" />
          </mxGeometry>
        </mxCell>
        <mxCell id="Rmg1uCzJ_VwoZsZOOwg5-21" value="Route/PIRSortie" style="text;html=1;strokeColor=none;fillColor=none;align=center;verticalAlign=middle;whiteSpace=wrap;rounded=0;" parent="1" vertex="1">
          <mxGeometry x="290" y="220" width="40" height="20" as="geometry" />
        </mxCell>
        <mxCell id="Rmg1uCzJ_VwoZsZOOwg5-24" value="Route/Fenetre" style="text;html=1;strokeColor=none;fillColor=none;align=center;verticalAlign=middle;whiteSpace=wrap;rounded=0;" parent="1" vertex="1">
          <mxGeometry x="394" y="210" width="40" height="20" as="geometry" />
        </mxCell>
        <mxCell id="Rmg1uCzJ_VwoZsZOOwg5-25" value="Route/TempUser" style="text;html=1;strokeColor=none;fillColor=none;align=center;verticalAlign=middle;whiteSpace=wrap;rounded=0;" parent="1" vertex="1">
          <mxGeometry x="510" y="220" width="40" height="20" as="geometry" />
        </mxCell>
        <mxCell id="Rmg1uCzJ_VwoZsZOOwg5-26" value="Route/CapteurGaz" style="text;html=1;strokeColor=none;fillColor=none;align=center;verticalAlign=middle;whiteSpace=wrap;rounded=0;" parent="1" vertex="1">
          <mxGeometry x="520" y="280" width="40" height="20" as="geometry" />
        </mxCell>
        <mxCell id="Rmg1uCzJ_VwoZsZOOwg5-29" value="" style="endArrow=classic;html=1;entryX=0.432;entryY=1.05;entryDx=0;entryDy=0;entryPerimeter=0;" parent="1" target="Rmg1uCzJ_VwoZsZOOwg5-8" edge="1">
          <mxGeometry width="50" height="50" relative="1" as="geometry">
            <mxPoint x="130" y="140" as="sourcePoint" />
            <mxPoint x="180" y="90" as="targetPoint" />
          </mxGeometry>
        </mxCell>
        <mxCell id="Rmg1uCzJ_VwoZsZOOwg5-30" value="" style="endArrow=classic;html=1;entryX=0.44;entryY=1;entryDx=0;entryDy=0;entryPerimeter=0;exitX=0.575;exitY=0.033;exitDx=0;exitDy=0;exitPerimeter=0;" parent="1" source="Rmg1uCzJ_VwoZsZOOwg5-6" target="Rmg1uCzJ_VwoZsZOOwg5-8" edge="1">
          <mxGeometry width="50" height="50" relative="1" as="geometry">
            <mxPoint x="340" y="130" as="sourcePoint" />
            <mxPoint x="390" y="80" as="targetPoint" />
          </mxGeometry>
        </mxCell>
        <mxCell id="Rmg1uCzJ_VwoZsZOOwg5-31" value="" style="endArrow=classic;html=1;entryX=0.44;entryY=1;entryDx=0;entryDy=0;entryPerimeter=0;exitX=0.5;exitY=0;exitDx=0;exitDy=0;" parent="1" source="Rmg1uCzJ_VwoZsZOOwg5-7" target="Rmg1uCzJ_VwoZsZOOwg5-8" edge="1">
          <mxGeometry width="50" height="50" relative="1" as="geometry">
            <mxPoint x="230" y="370" as="sourcePoint" />
            <mxPoint x="280" y="320" as="targetPoint" />
          </mxGeometry>
        </mxCell>
        <mxCell id="Rmg1uCzJ_VwoZsZOOwg5-32" value="" style="endArrow=classic;html=1;entryX=0.456;entryY=1.067;entryDx=0;entryDy=0;entryPerimeter=0;exitX=0.25;exitY=0;exitDx=0;exitDy=0;" parent="1" source="Rmg1uCzJ_VwoZsZOOwg5-10" target="Rmg1uCzJ_VwoZsZOOwg5-8" edge="1">
          <mxGeometry width="50" height="50" relative="1" as="geometry">
            <mxPoint x="560" y="130" as="sourcePoint" />
            <mxPoint x="610" y="80" as="targetPoint" />
          </mxGeometry>
        </mxCell>
        <mxCell id="Rmg1uCzJ_VwoZsZOOwg5-34" value="" style="endArrow=classic;html=1;entryX=0.428;entryY=1.083;entryDx=0;entryDy=0;entryPerimeter=0;exitX=0.167;exitY=0;exitDx=0;exitDy=0;exitPerimeter=0;" parent="1" source="Rmg1uCzJ_VwoZsZOOwg5-9" target="Rmg1uCzJ_VwoZsZOOwg5-8" edge="1">
          <mxGeometry width="50" height="50" relative="1" as="geometry">
            <mxPoint x="570" y="130" as="sourcePoint" />
            <mxPoint x="620" y="80" as="targetPoint" />
          </mxGeometry>
        </mxCell>
        <mxCell id="Rmg1uCzJ_VwoZsZOOwg5-35" value="Envoie donne sur oneM2M" style="text;html=1;strokeColor=none;fillColor=none;align=center;verticalAlign=middle;whiteSpace=wrap;rounded=0;" parent="1" vertex="1">
          <mxGeometry x="394" y="70" width="160" height="20" as="geometry" />
        </mxCell>
        <mxCell id="wCcxf0mlogJDoAdtNHjF-1" style="edgeStyle=orthogonalEdgeStyle;rounded=0;orthogonalLoop=1;jettySize=auto;html=1;exitX=0.75;exitY=1;exitDx=0;exitDy=0;entryX=0.25;entryY=1;entryDx=0;entryDy=0;" parent="1" source="2HFA_lHzWDiCbQfCLhAR-3" target="2HFA_lHzWDiCbQfCLhAR-3" edge="1">
          <mxGeometry relative="1" as="geometry" />
        </mxCell>
        <mxCell id="pScQPtqC4jIof6JPwWHU-1" value="" style="endArrow=classic;html=1;exitX=0.994;exitY=0.36;exitDx=0;exitDy=0;exitPerimeter=0;entryX=0.394;entryY=0.02;entryDx=0;entryDy=0;entryPerimeter=0;" parent="1" source="Rmg1uCzJ_VwoZsZOOwg5-1" target="2HFA_lHzWDiCbQfCLhAR-5" edge="1">
          <mxGeometry width="50" height="50" relative="1" as="geometry">
            <mxPoint x="580" y="380" as="sourcePoint" />
            <mxPoint x="680" y="530" as="targetPoint" />
            <Array as="points">
              <mxPoint x="681" y="356" />
            </Array>
          </mxGeometry>
        </mxCell>
        <mxCell id="wCcxf0mlogJDoAdtNHjF-2" value="Si non opérationnel, &lt;br&gt;msg écran erreur si écran&amp;nbsp;&lt;br&gt;" style="text;html=1;align=center;verticalAlign=middle;resizable=0;points=[];autosize=1;" parent="1" vertex="1">
          <mxGeometry x="234" y="655" width="160" height="30" as="geometry" />
        </mxCell>
        <mxCell id="pScQPtqC4jIof6JPwWHU-2" value="Si seuil dépassé , personne entrée ou sortie." style="text;html=1;strokeColor=none;fillColor=none;align=center;verticalAlign=middle;whiteSpace=wrap;rounded=0;" parent="1" vertex="1">
          <mxGeometry x="574" y="350" width="142" height="20" as="geometry" />
        </mxCell>
        <mxCell id="wCcxf0mlogJDoAdtNHjF-4" value="Capteur température" style="rounded=0;whiteSpace=wrap;html=1;" parent="1" vertex="1">
          <mxGeometry x="620" y="535" width="160" height="100" as="geometry" />
        </mxCell>
      </root>
    </mxGraphModel>
  </diagram>
</mxfile>
